<mxfile host="65bd71144e">
    <diagram id="a2qCymA8xY7LjtpiCSF-" name="PÃ¡gina-1">
        <mxGraphModel dx="411" dy="402" grid="1" gridSize="10" guides="1" tooltips="1" connect="1" arrows="1" fold="1" page="1" pageScale="1" pageWidth="1169" pageHeight="827" math="0" shadow="0">
            <root>
                <mxCell id="0"/>
                <mxCell id="1" parent="0"/>
                <mxCell id="2" value="Customer" style="swimlane;fontStyle=0;childLayout=stackLayout;horizontal=1;startSize=26;fillColor=none;horizontalStack=0;resizeParent=1;resizeParentMax=0;resizeLast=0;collapsible=1;marginBottom=0;" parent="1" vertex="1">
                    <mxGeometry x="40" y="40" width="140" height="156" as="geometry"/>
                </mxCell>
                <mxCell id="3" value="_id: ObjectId" style="text;strokeColor=none;fillColor=none;align=left;verticalAlign=top;spacingLeft=4;spacingRight=4;overflow=hidden;rotatable=0;points=[[0,0.5],[1,0.5]];portConstraint=eastwest;" parent="2" vertex="1">
                    <mxGeometry y="26" width="140" height="26" as="geometry"/>
                </mxCell>
                <mxCell id="4" value="name: String" style="text;strokeColor=none;fillColor=none;align=left;verticalAlign=top;spacingLeft=4;spacingRight=4;overflow=hidden;rotatable=0;points=[[0,0.5],[1,0.5]];portConstraint=eastwest;" parent="2" vertex="1">
                    <mxGeometry y="52" width="140" height="26" as="geometry"/>
                </mxCell>
                <mxCell id="5" value="phone: String" style="text;strokeColor=none;fillColor=none;align=left;verticalAlign=top;spacingLeft=4;spacingRight=4;overflow=hidden;rotatable=0;points=[[0,0.5],[1,0.5]];portConstraint=eastwest;" parent="2" vertex="1">
                    <mxGeometry y="78" width="140" height="26" as="geometry"/>
                </mxCell>
                <mxCell id="6" value="id_document: String" style="text;strokeColor=none;fillColor=none;align=left;verticalAlign=top;spacingLeft=4;spacingRight=4;overflow=hidden;rotatable=0;points=[[0,0.5],[1,0.5]];portConstraint=eastwest;" parent="2" vertex="1">
                    <mxGeometry y="104" width="140" height="26" as="geometry"/>
                </mxCell>
                <mxCell id="59" value="email: String" style="text;strokeColor=none;fillColor=none;align=left;verticalAlign=top;spacingLeft=4;spacingRight=4;overflow=hidden;rotatable=0;points=[[0,0.5],[1,0.5]];portConstraint=eastwest;" parent="2" vertex="1">
                    <mxGeometry y="130" width="140" height="26" as="geometry"/>
                </mxCell>
                <mxCell id="12" value="Sale" style="swimlane;fontStyle=0;childLayout=stackLayout;horizontal=1;startSize=26;fillColor=none;horizontalStack=0;resizeParent=1;resizeParentMax=0;resizeLast=0;collapsible=1;marginBottom=0;" parent="1" vertex="1">
                    <mxGeometry x="320" y="40" width="140" height="130" as="geometry"/>
                </mxCell>
                <mxCell id="13" value="_id: ObjectId" style="text;strokeColor=none;fillColor=none;align=left;verticalAlign=top;spacingLeft=4;spacingRight=4;overflow=hidden;rotatable=0;points=[[0,0.5],[1,0.5]];portConstraint=eastwest;" parent="12" vertex="1">
                    <mxGeometry y="26" width="140" height="26" as="geometry"/>
                </mxCell>
                <mxCell id="14" value="datetime: DateTime" style="text;strokeColor=none;fillColor=none;align=left;verticalAlign=top;spacingLeft=4;spacingRight=4;overflow=hidden;rotatable=0;points=[[0,0.5],[1,0.5]];portConstraint=eastwest;" parent="12" vertex="1">
                    <mxGeometry y="52" width="140" height="26" as="geometry"/>
                </mxCell>
                <mxCell id="15" value="number: Number" style="text;strokeColor=none;fillColor=none;align=left;verticalAlign=top;spacingLeft=4;spacingRight=4;overflow=hidden;rotatable=0;points=[[0,0.5],[1,0.5]];portConstraint=eastwest;" parent="12" vertex="1">
                    <mxGeometry y="78" width="140" height="26" as="geometry"/>
                </mxCell>
                <mxCell id="40" value="customer_id: ObjectId" style="text;strokeColor=none;fillColor=none;align=left;verticalAlign=top;spacingLeft=4;spacingRight=4;overflow=hidden;rotatable=0;points=[[0,0.5],[1,0.5]];portConstraint=eastwest;" parent="12" vertex="1">
                    <mxGeometry y="104" width="140" height="26" as="geometry"/>
                </mxCell>
                <mxCell id="16" value="n" style="endArrow=open;html=1;endSize=12;startArrow=diamondThin;startSize=14;startFill=1;edgeStyle=orthogonalEdgeStyle;align=left;verticalAlign=bottom;entryX=0.995;entryY=0.102;entryDx=0;entryDy=0;entryPerimeter=0;" parent="1" target="2" edge="1">
                    <mxGeometry x="-0.7561" y="-3" relative="1" as="geometry">
                        <mxPoint x="320" y="53" as="sourcePoint"/>
                        <mxPoint x="210" y="170" as="targetPoint"/>
                        <mxPoint as="offset"/>
                    </mxGeometry>
                </mxCell>
                <mxCell id="18" value="Product" style="swimlane;fontStyle=0;childLayout=stackLayout;horizontal=1;startSize=26;fillColor=none;horizontalStack=0;resizeParent=1;resizeParentMax=0;resizeLast=0;collapsible=1;marginBottom=0;" parent="1" vertex="1">
                    <mxGeometry x="600" y="240" width="140" height="156" as="geometry"/>
                </mxCell>
                <mxCell id="19" value="_id: ObjectId" style="text;strokeColor=none;fillColor=none;align=left;verticalAlign=top;spacingLeft=4;spacingRight=4;overflow=hidden;rotatable=0;points=[[0,0.5],[1,0.5]];portConstraint=eastwest;" parent="18" vertex="1">
                    <mxGeometry y="26" width="140" height="26" as="geometry"/>
                </mxCell>
                <mxCell id="20" value="description*: String" style="text;strokeColor=none;fillColor=none;align=left;verticalAlign=top;spacingLeft=4;spacingRight=4;overflow=hidden;rotatable=0;points=[[0,0.5],[1,0.5]];portConstraint=eastwest;" parent="18" vertex="1">
                    <mxGeometry y="52" width="140" height="26" as="geometry"/>
                </mxCell>
                <mxCell id="21" value="unit*: String" style="text;strokeColor=none;fillColor=none;align=left;verticalAlign=top;spacingLeft=4;spacingRight=4;overflow=hidden;rotatable=0;points=[[0,0.5],[1,0.5]];portConstraint=eastwest;" parent="18" vertex="1">
                    <mxGeometry y="78" width="140" height="26" as="geometry"/>
                </mxCell>
                <mxCell id="22" value="price*: Number" style="text;strokeColor=none;fillColor=none;align=left;verticalAlign=top;spacingLeft=4;spacingRight=4;overflow=hidden;rotatable=0;points=[[0,0.5],[1,0.5]];portConstraint=eastwest;" parent="18" vertex="1">
                    <mxGeometry y="104" width="140" height="26" as="geometry"/>
                </mxCell>
                <mxCell id="42" value="supplier_id*: ObjectId" style="text;strokeColor=none;fillColor=none;align=left;verticalAlign=top;spacingLeft=4;spacingRight=4;overflow=hidden;rotatable=0;points=[[0,0.5],[1,0.5]];portConstraint=eastwest;" parent="18" vertex="1">
                    <mxGeometry y="130" width="140" height="26" as="geometry"/>
                </mxCell>
                <mxCell id="23" value="SaleItem" style="swimlane;fontStyle=0;childLayout=stackLayout;horizontal=1;startSize=26;fillColor=none;horizontalStack=0;resizeParent=1;resizeParentMax=0;resizeLast=0;collapsible=1;marginBottom=0;" parent="1" vertex="1">
                    <mxGeometry x="320" y="240" width="140" height="104" as="geometry"/>
                </mxCell>
                <mxCell id="25" value="order*: Number" style="text;strokeColor=none;fillColor=none;align=left;verticalAlign=top;spacingLeft=4;spacingRight=4;overflow=hidden;rotatable=0;points=[[0,0.5],[1,0.5]];portConstraint=eastwest;" parent="23" vertex="1">
                    <mxGeometry y="26" width="140" height="26" as="geometry"/>
                </mxCell>
                <mxCell id="26" value="quantity*: Number" style="text;strokeColor=none;fillColor=none;align=left;verticalAlign=top;spacingLeft=4;spacingRight=4;overflow=hidden;rotatable=0;points=[[0,0.5],[1,0.5]];portConstraint=eastwest;" parent="23" vertex="1">
                    <mxGeometry y="52" width="140" height="26" as="geometry"/>
                </mxCell>
                <mxCell id="41" value="product_id: ObjectId" style="text;strokeColor=none;fillColor=none;align=left;verticalAlign=top;spacingLeft=4;spacingRight=4;overflow=hidden;rotatable=0;points=[[0,0.5],[1,0.5]];portConstraint=eastwest;" parent="23" vertex="1">
                    <mxGeometry y="78" width="140" height="26" as="geometry"/>
                </mxCell>
                <mxCell id="27" value="n" style="endArrow=open;html=1;endSize=12;startArrow=diamondThin;startSize=14;startFill=1;align=left;verticalAlign=bottom;exitX=0.5;exitY=0;exitDx=0;exitDy=0;" parent="1" source="23" edge="1">
                    <mxGeometry x="-1" y="-10" relative="1" as="geometry">
                        <mxPoint x="270" y="200" as="sourcePoint"/>
                        <mxPoint x="390" y="170" as="targetPoint"/>
                        <mxPoint as="offset"/>
                    </mxGeometry>
                </mxCell>
                <mxCell id="28" value="n" style="endArrow=open;html=1;endSize=12;startArrow=diamondThin;startSize=14;startFill=1;edgeStyle=orthogonalEdgeStyle;align=left;verticalAlign=bottom;" parent="1" edge="1">
                    <mxGeometry x="-0.925" y="5" relative="1" as="geometry">
                        <mxPoint x="460" y="260" as="sourcePoint"/>
                        <mxPoint x="600" y="260" as="targetPoint"/>
                        <mxPoint as="offset"/>
                    </mxGeometry>
                </mxCell>
                <mxCell id="29" value="Supplier" style="swimlane;fontStyle=0;childLayout=stackLayout;horizontal=1;startSize=26;fillColor=none;horizontalStack=0;resizeParent=1;resizeParentMax=0;resizeLast=0;collapsible=1;marginBottom=0;" parent="1" vertex="1">
                    <mxGeometry x="320" y="440" width="140" height="156" as="geometry"/>
                </mxCell>
                <mxCell id="30" value="_id: ObjectId" style="text;strokeColor=none;fillColor=none;align=left;verticalAlign=top;spacingLeft=4;spacingRight=4;overflow=hidden;rotatable=0;points=[[0,0.5],[1,0.5]];portConstraint=eastwest;" parent="29" vertex="1">
                    <mxGeometry y="26" width="140" height="26" as="geometry"/>
                </mxCell>
                <mxCell id="31" value="name: String" style="text;strokeColor=none;fillColor=none;align=left;verticalAlign=top;spacingLeft=4;spacingRight=4;overflow=hidden;rotatable=0;points=[[0,0.5],[1,0.5]];portConstraint=eastwest;" parent="29" vertex="1">
                    <mxGeometry y="52" width="140" height="26" as="geometry"/>
                </mxCell>
                <mxCell id="33" value="phone: String" style="text;strokeColor=none;fillColor=none;align=left;verticalAlign=top;spacingLeft=4;spacingRight=4;overflow=hidden;rotatable=0;points=[[0,0.5],[1,0.5]];portConstraint=eastwest;" parent="29" vertex="1">
                    <mxGeometry y="78" width="140" height="26" as="geometry"/>
                </mxCell>
                <mxCell id="34" value="country: String" style="text;strokeColor=none;fillColor=none;align=left;verticalAlign=top;spacingLeft=4;spacingRight=4;overflow=hidden;rotatable=0;points=[[0,0.5],[1,0.5]];portConstraint=eastwest;" parent="29" vertex="1">
                    <mxGeometry y="104" width="140" height="26" as="geometry"/>
                </mxCell>
                <mxCell id="60" value="email: String" style="text;strokeColor=none;fillColor=none;align=left;verticalAlign=top;spacingLeft=4;spacingRight=4;overflow=hidden;rotatable=0;points=[[0,0.5],[1,0.5]];portConstraint=eastwest;" parent="29" vertex="1">
                    <mxGeometry y="130" width="140" height="26" as="geometry"/>
                </mxCell>
                <mxCell id="35" value="n" style="endArrow=open;html=1;endSize=12;startArrow=diamondThin;startSize=14;startFill=1;align=left;verticalAlign=bottom;entryX=1;entryY=0.5;entryDx=0;entryDy=0;edgeStyle=orthogonalEdgeStyle;exitX=0.502;exitY=0.966;exitDx=0;exitDy=0;exitPerimeter=0;" parent="1" source="42" target="29" edge="1">
                    <mxGeometry x="-0.8806" y="5" relative="1" as="geometry">
                        <mxPoint x="590" y="350" as="sourcePoint"/>
                        <mxPoint x="670" y="440" as="targetPoint"/>
                        <mxPoint as="offset"/>
                    </mxGeometry>
                </mxCell>
                <mxCell id="39" value="" style="shape=stencil(lZ3Z0htHcoWfhreI2pfrsec9FCFqpBhZVFAcL2/vKsvAD5zT+Eq8E6lMsLs6K5eT26f8tz9+/uH3z59S+OPb1y///Pxfv/z47edP+d8+pfTLbz9//vrLt/Vfn/K/f8p/++nL18//+PrlX7/9+Oeff/9hU+7/+o8v/7l/4b//5IvzluvmSuF//vybcGvl//7i73/S//rLb8/04zam0M+E9Dm80MdbbkDfb7MKPT5Pv9Uk9P//A+/o4+vzpFvqQN9urQl9o/dttziEfk6gr7eWX+jzLQ+kD13oOz1/udXX3y+3SOeT74/7QV/pffOtFKGfGejTbbyeT70L4Dv6NIW+0/nEW48v9O2WItKnJPSNnj/c+qt89lug5w+3HIW+gDzM21RyOs55q6+nP/A0pwrnQOEZ+jCLH8lFlOetBSLPcnPDLYBqGLeQlZ5Es+uXWt86wPN0leRFX+B5uh7mop+gqtptiiZMtwIfawliVPoJx99Uk++7CVelqSbcdx9+v97Gq+ZZuoXOp9rzL9WA9FnOs+L51FssSk93pZhlaWiKyq0npR/4+1Xet9911xt6lf8lsSA/S3EL/cDrmO/S+ERf4XmWIXm1dMs3CKA6s33feStIX6rSD7i/yxC+3vflaiS4v1k1+aKveD4xKj3d33w/jQf9cmWAPt0doyd60rbLMr5+r+2agLylu7Q80ZP8LMfl9fz3iYH8p1ttSk/fK6n+XBJLpi6pZ7hudIL7nu6Oy4O+3QK5VurJbA1MrsP96zzoO+qreKvyPOPw+/n1fDLbu3iL4hk+/uaSPty134M+3TXkG3p537wkHJ7/ERg80ZPrH9Q3yeUuge/oX+UhL3nA53H6ge8r+jm3uwZ+R5+Unu5v0PuSHx7Cu/NMSk/6atG/ynNeHhE+fx9KT/cxaGS36DF0uf/rD/p5P+F38vwqbyWw66z6f9FXvF/l9X1LvFvMN/RivxZ9w/so/kBZ9wvpRZ8v+kahmt7fkvH+JrVH5WGR39HL+RfUn0n9jUVf0V7EV/kvK1bF5xd7vegr2rsk37ehf5LUH170Be1vSUpP+j/db9ODvqM/bPa0cGyXNJwq425h3/kDQenJnzH/ocyDve4SiQe0F8ufiUrf0b6P1/Op8fC9xL+qD4l6Ry/IQ8Z4MN+l94m+w/c1f7Ky/7Po5Tzryb81+oH+bRb6dreYb+jFntaO+sH8/0VP+m2d3qs813FL6G+PqvQcL+j3nXhfisa/jeW53L/OE32H5ylqvxrHC0X950VP8Xi5ewsP+oTxXdHzbxnPv2i8v+gn6Nuq/kBje1EVP2kVobpq58nyX+/a40HfEC8yvKJ1tO9V4+VFT/JZVV+1ccBnwuv9bROh26b2cdETXtHUX+qMpzVDPiPGjw9g9EH/8EDe0Iu+WvRkH7v6tz3j+w71P3u5W8w39FV+v6J/PlX+e0N/YNr59wN4K/hVH3cL8g56FoemHwLUYODzRA23AdJXlTjC/SO+Y5B/YUSOgQ1UWAz00eLDpj8Y0l1vvGOQMH4xYAapKA4xHj/xjkEcp1EwMPzAPZ8YBkVWpioGQ6eLQbIko3Es1hWsXAwUzO88njB09M42OBmUgdzFjU6+2oMxED+KUwGAxdBIWqdGZGNyxGTJnsVA32HH6MYwiCFqEDcDg4R2RRcDeQk7zM3KgGFE0u8wI6ZUk6X0FgMlinbkVJRhMoPcuJlQVW7fuioDpQG38/uqvGdG45ZMa0zOzmx3zRjI/dr+lHzpwvhB1QB2MVBCZHswTRnww5mLsRgIots+g4h35RizKygzOZ+chhqUWRk1mXcn+YmBhC8/oogHQ0N1n83sLgYKXHLUyH0xkCLLSV2ZxUDQbV6yKXe6oyzlYheoI7iaq5qsxUDoYa6aPl0MjY612Sl11K2534X5wTA4ATbsAh0yctOU8eCQMNwv5BMDnVKJFwwUlJd0wYBZznzBQF5lKYrDzXnXVNcMVRMli4FsXGkaGS4GPNaudnoeoIKhsdVioFipTLsPE81ufZjxJwayQDWaFZ34pWu6Z2efGeDD1ayA5WaggLjc499nBjil2jTFtU+JUv5dY/r94eilh4JIc6J9aEFRnoPwNUs7LAYyWc1w132B6F/IZnbH3b+5ZqiK3G8lAN+hNRO+gaFr63YfBtY6tHF3CZ9VJSiBNjU7vLQ3uT89aISyGChS7JaPnVya1ZMWqCwGCjh6thvX0aD0YrLUMAbaiIR5AmQfetOk42LAd+jm6FbMCvZh4l3vQc41w7SAo969j2tcJlw8EgFjIypSOgsihyOZnS6ol0a+I5fPvjec0groBSxa3v0gMKoo2rUYMr1D1cLPmdDnWwG9GsWE9TwrPldHN95TOO8YJMMzI2qN4RWFAU3WmHanA0bs+38L6sBJsP0AhjoMeKT9ioY6EGw6rQ5lnRtBLdMKafaXAVmalpkbXAkxLTxe0kWewGKQXORiwEcqhmBxLDoftYdPKFynStlix5qxPGBHngYMkm5dDEkeiWvRt54zcJNu3A5VX7XG0oV047bqrcpA2My0KKuzz7fMh6LeD1zuHYOUbS6LgV/anJNtk+iKWjjQufBrh9vGQD7fNrKvX7pXjB8+4vMHQ0FnfT5KTR8MGU3WDuinMhCyPruWa3TuhNgBvXy4iAjWR0D/YAgsS11PaWewSGt0LbFpA53E7UNOZaAale2lelKQXnqotG7nml56aHi83PdMLz30WFu5W+53DNLC0jLfuKG+xopZKMraAYykxiOWau0QyXLpeB+mRop1omc8LQDfoSC9tLkOK9ik9PtmmMpAOZQPjOHB0DAGmpYhrBUz0tMyHLWgd/8Rbj8YMmbLNsOrFa2JNZ8zRKwK2Azy0gHjOGco817J+NcZIl0gZ2DY7oKhf+dLl4YZvwsGDssuGQjRvWAo6KxfMOSjaAhDOmkNZYgnJaAM3K14yUBgjjNkhh4vGAZ7987Q2aucF3XIJyUghePtDiu8ZfDKaz5WcdZzZd97qkeWyz0k/4vKOOfTsWo1fsK0zjYoXRkOyji9esY5Iq6xbZycEheYbStqDFQRPq2hb2e3Dp6A9OAMxL23cyIMnRXZUBg7db5xQwOO1Nhkdc2xp4pQ/HZ0pRGknNxQqRRNhb9D06xl4lK8HaFIr0zi79A0kXpoPppWzbZLDQ7Bq7S/BP4OVTPgcfIVtQLEQ0PaLKr54sFOW9YyHkLLrFUt8RBaWnVRbNjUshikSi1WhB6n1TpEzrFvVC8rAypjaxyIB8MerfM2YU5xMWhr4CEWtV6S3ffNsJ1+OJ5DMA1k3tVx9EjB2oe50GYx6DtwKc8uDRIYG/PZw5x7zpUteilIn9yPPayuDSspxtDM8UADuuFiKZDEyzlMb3dUqsMwlsYQvBfYYrHjqKrlK/aTLHqNcdEdHkWTP5XfN1uDEYIlO6khDUP8fZOGeoxLjKjp4oLqfQQFbzImlha9FESx2uo2HSFjNUcfWhnEHmTvep5cY9ab5hsTyttOBuqoEuon6UXTAAktfi/WcI/BVHfbh67gBixFRyOi360BK6I/0ePFaJlDglhH11BY1K2hk/HRDW7qeVKM06zgNaLDtXPu+vzk7DfTnxHlZ7dT6POQPm/1DvE90YP8NJPPiLm8XSeh70v2q13IG8l/S4oFR8SOW7QBIUwfNH8UMZNSpw3MYHpraODnqWZ/+XwWfVJ5oPOvTVOpEUtoa9OG14iRYq02EAXlpxa/v/j7WWHyw/Pb6KPD+VhD8OH8Hw7qX6Z3+aciuGlxANMPG1jC9F39zwN9U3vK8l+sgexAX77vfhUr9znQeyDG9NEGzDB90IEfTJ+n+mNH+mD6lmqEL+wR0vtAJpTnXfD7PfclG0bC9zFXBWH4vmdruGR9suiDyRvRZ00PsX77ADif7C8VsictCDrQR03fRkyrZOtlOdB7hI306UKeD/Qmn0g/bAAS+jN7gNn3+D/J6tF5/svFQDLu/2g28AnL6Lz9g/29VDVejhhPpQv7S6n2lA0f5N/PHr/g+SctNo6I6vrAD042bfc9Cj3OVwr6voHnPQVNcXAiNVr+IWDJSbSG1+MoUHt+HBU5FD8JGF9/jDd7en4eZVqUnuY7RGsdCtwCOdS+B4wfN72eT+HzrPq9sNN1KKQZMB6MQ/VnOHVwTn1+pJ/qHx6exzqxDu87tSI8YP5t0+t54ve6oEd5sJL2g7yZPTrIs/nnx/sy9XxO99F+n7qSrXr3oE+GDtwKiOnv+2Kjiw/0dh/5eez3qSni6vlx1PHF+SRqC/9O+hQ0Jx6wBvfDXX6i517kqvKA/kDSNCnXovrAwoAV78nw6sAdtpbM4/vu/kngeVjm/7C8uX916NQ2/y1wN675h4E7X83/DNhF5P7tkb6p/4M91xf68EBv9ovoPb7gUegevxzpm95HpLf460g/7Xwo/rX48UBv8SmX83r8yzWeHl8f6C1+5+YQxwfYXjj+wP6z4xsB81OOnxzpTZ6J3vGfA73hSwd6w68O9IaPHegNfzvQG753oDf88EBv+OSB3vDPA/2F/0b0jt+yfDo+fKA3/Jnvi+PbB3rDz/m+Oz7P+sfx/wO95ReO9OaP4fNbfoT1ledfDt/L8jsH+bH8EdN7fupAb/mvA73l1w70lr/jcsl24e9RfnnnH02fUH6wun2nVRXNuogC1p+07vqT4sE2tLotYKdim9qDx/Fgs10VAWvhug0wZvx/59+/B9/uSeMXxjMXveG3VH/VL/BDwh+6zQiKXH9SPJ9F9T+9eH4Q6yVMPnmKUm8azyY+/67z5hJ2le6+Pyn9xXinW8l24nbjYBXbiJ+PqPY9Yz3GsMFXmecJWtttxpaNPVZO67US95RLpzFPZxrFBlTjoK9hFb/cqDbMP698PmZPG+Lze6CcNJHh/Og9T0764FBfDVtQ03kugeGlHe/XmIoP8PKeRa9N1VyWHmyYFuKxu4JVph5g/D5dnx/aD4IVYAXud/YKmsDdBG4yIs6U/Zg898SARelRZxjEhFZm2tqKxUBuza7Pln8hc3d+sjwnF1LuGvOhDNhokhXpizyiY9fJW9k7NssUyzU3HqtQrLihc/NYsezl4CbvauZ4cIeQ1V9Gnma0GGQ4UeIK8Nk0Q5cC94I1TSntmsdD37nUhCZMQu02cmn4yXwfuvWN8BqR3b9j7TjYEGo92x+TDt8xCJCReCjObouSdpzDxI2hu5gS73qa05bd8ESm3c8m73DQ9tZcvAcMH1odxT06NubKFc2H8RbTNpzwBpvFIBZ9MRxaf9UFy4ipzqlXNBcswt4MUkReT83FEpXuZsoDgzwS+z1z6mD8zI0RMdhUnEPP6RUHt7VecXDn7AXHoTn3mgNLFC44uMX4ioO7mK84uDHhioNDgSsObve+5sD1Pxcc3LR+xcF98Vcc3NJ3xcHd/dccpEUuOA4zCq44jmMQpNml8rbIzSDRVj51ootN2sMiDo8k71Cx4GrrQtno0k66UDzZ2rHE0g1AHWyIp/Yg1HEcFiFB70RUz1vX29FMSpjZIuZlp+VB9+IP/hckcdcyG7GhyFIrvJrAJ8ZUbgYe6hvsMTn8SAKG7BmU3FguaOke9cP/gsDbe5gQv7TOBprcedv1WDsj3NNW2PbIpr7bzgrG4KZhyj3zFe0KKnceS74DhFfx3ms3iKGpu7KHa/H4LlEz/TByyQonej/16zdjwIC52XcYPL/CArXOU2Snbfs97OrYY9Rev8M49OsbfDd4EcAOZwXPiqyXqgLkI/E0Ll+MwdvYZ9Ue63EYtGCY6GLAsVFFP9zgrV970qEwHAbxZBv6Vxn3M3hn8OK7vetAGrM7G3ZbDbh7tbnBX6CRMdibCYrWjMmeQND49wMufYemigWagduVLYafXF+5GHTlQ8ShHd7APjnjsr6rhOQzYdS1W9KFgXuc99jOrAxURDV8EUDBDzd81UDhMQXJXpoHXgzfaMJj1PZQTZ9ITJlEC/pnRWXchzHwLsveFbiY7C9129a1bRKPkhYlMDma68XWJXTsn9r94DZwm25cT1qQtP0b7vAW6HxPiKQUZzDh45UP7WqDA7mhy4fUOz0QBPMu7O0rcxu2zm0eOOqnVRtxz4tCl/OvSoA3OKx4ZPgQfSqdsF3ac3IvfLjar0DNzEO3G5/WJdj00smB345t7ZFwP6H5GnNiwUW1NMxkyLbaHPMnIOKaI9qc/okoUL3al0BR096MYedKAUSxiaqTw6zSNZCbPCvUCwEPiy6KpYYO0rfhOlsSQVqg5AsG0vclXTwS5WGKf+nDHhcrp5iHfazTNpQMLhi2gpDJGzJzv1jAg1uHrMRg8gyi7A4TA0zZ0oyTXeNcbFlH5zJv2wM8ee90tjrdw96KbN765Pg4B/OwGurK5A4Tj5xMU2szJ89RS1aMvT0s7p6V6qXJYZbvQ/1IAL9jELxo7yqDY03VrGLl/YO2gve0b63YYrDDRjerMTrtjLMtznszBm/W05fOWAmw93T7Zj3qa0mKAc+Emu9jjtITA24mj6YEeFbortyTDxf5w0UdwToZGdy1jbZDkab7JJuYN7nc9KP76IkBT8kNCi/riJaAGLzBKk6NOPaCEMoFWQv04JqPaJUAB2Aj2hbicUitdg13R+e2YMNP96A7SpnZnLHB5Q/RZoXudSD0L1TVfBtXoO/g2z0K9v7FbCtNMhZYLAa504OrQ2O6v+IT9kjrQGKylSaR+1+jSWvkBuqo6n4cOpaDJlH6RHRzF/QVZcBZoaq8d5Evgf16Rr0z+KNY6C5SRvpouQTSGFZr1Hn0b9er0zPXzF9t6YDzbCp0nQ1Ju9jRgevuFIzu3HNadYRDm6gfbeRbmwiXVDVrbaBZs1WRrXPMbalT3kptO4Aay1vRlohWUR6KlSRX7Ikuagwaz+QsmjD5WCb4hl5GFOxMMXxfGwnZElqCom78osfIQlGbFjFzne08ecZCtjR0QCtgJfl1Yoor246QgfKZFbqovFcxq79SOTGZdWJ87eyNW1HJIU6zig9elpysfqPyOnMFqWvBlIrlCj6aDt/RJ6XHqNFWuiR0nWzbbuUUqa1K34VG5FNrknfR4wwrvb+F99qaT1MGwoNJPZQyMDsaNcdWOoZmUe1R4S3SUYHpwhs5LXVUGp5PVHu36CknYu0HpfJMEnURFz1l16ylu3B8HzWbXXg2fFTQpGSE+KJWLZSMUaiBlCWxW6/6cOOi5NWrfS/cQxdshDb3lwT1Jwv3/FoMveipOMDyV5nXTAe175nT6sFGYg/MwAXVD4ue5N/ii72EHc/TC5Npz6rTN/QHrKU+N4xfgsrPLt5G+ZFKvMz+XlBwOBcseAkKz2UGz2xE3KKnCpxgm38SZgKtRSzzTMugCM/eaIP6WVs9eJe2jdw79OiZ/twRHP6++Cc7wkJ9JXWTHxHKO/sl9IXhJu0VSCf/R/zzlFG/JZXnD3D1nb/RlB5nNmrub58Y+ktSS/uBe77z3+T3A97fpPjG1sDo74k/kALqW2/l4yx1UjwhTkyLWLwQeStiVv3wMQTxXXxk9HR/sy4Ljx39E+8r7Ggfi+1YaWh/iyXMG+IDxUYIVPTPi2ZDFj3Zl6r2NDIe5SPPC6aYqo2Ez5jTrVoZFXlfZLPnT1hU1GwFQUJ5Nnws8pqrdrEGiOxv13gq8oxWKxqJAZswuhXK8EgDyyDyhAKV5oErjGzeKvt6ht2OAzQs/Yady8BtETUPBw0aWZ96kWx18B3KfYe1a+TOaRsbnlRP2QLxrA6BnWU9C6dgskUWaNhj0b7ejIZx0Yvnk9kxqT5sg4ZNxmott9xf6K3SeNG3XdBh2zjctPsyFgzcL4bZ4/NYwScP14nDhzdjoDx8+N9hOLFY3uOwXhvOhIH4xfAhlM+plv1Ib8ODybDH6cMXsWd2quXi4aaLvuj5kKGOtkKVh6HGeTFMms/f6TkXb8MRD8OSfbgjDyP34W2H82f69R+///Dt5z//8NMvv/76x7evX/75+fn///Tl6+d/fP3yr99+fPzVHz//8Pvn9af/BQ==);lineShape=1;" parent="1" vertex="1">
                    <mxGeometry x="251.04321627603213" y="13.268505797204853" width="278.1725178621879" height="369.16279243733356" as="geometry"/>
                </mxCell>
                <mxCell id="43" value="Address" style="swimlane;fontStyle=0;childLayout=stackLayout;horizontal=1;startSize=26;fillColor=none;horizontalStack=0;resizeParent=1;resizeParentMax=0;resizeLast=0;collapsible=1;marginBottom=0;" parent="1" vertex="1">
                    <mxGeometry x="40" y="360" width="140" height="208" as="geometry"/>
                </mxCell>
                <mxCell id="44" value="street: String" style="text;strokeColor=none;fillColor=none;align=left;verticalAlign=top;spacingLeft=4;spacingRight=4;overflow=hidden;rotatable=0;points=[[0,0.5],[1,0.5]];portConstraint=eastwest;" parent="43" vertex="1">
                    <mxGeometry y="26" width="140" height="26" as="geometry"/>
                </mxCell>
                <mxCell id="45" value="number: String" style="text;strokeColor=none;fillColor=none;align=left;verticalAlign=top;spacingLeft=4;spacingRight=4;overflow=hidden;rotatable=0;points=[[0,0.5],[1,0.5]];portConstraint=eastwest;" parent="43" vertex="1">
                    <mxGeometry y="52" width="140" height="26" as="geometry"/>
                </mxCell>
                <mxCell id="46" value="complement: String" style="text;strokeColor=none;fillColor=none;align=left;verticalAlign=top;spacingLeft=4;spacingRight=4;overflow=hidden;rotatable=0;points=[[0,0.5],[1,0.5]];portConstraint=eastwest;" parent="43" vertex="1">
                    <mxGeometry y="78" width="140" height="26" as="geometry"/>
                </mxCell>
                <mxCell id="47" value="district: String" style="text;strokeColor=none;fillColor=none;align=left;verticalAlign=top;spacingLeft=4;spacingRight=4;overflow=hidden;rotatable=0;points=[[0,0.5],[1,0.5]];portConstraint=eastwest;" parent="43" vertex="1">
                    <mxGeometry y="104" width="140" height="26" as="geometry"/>
                </mxCell>
                <mxCell id="48" value="city: String" style="text;strokeColor=none;fillColor=none;align=left;verticalAlign=top;spacingLeft=4;spacingRight=4;overflow=hidden;rotatable=0;points=[[0,0.5],[1,0.5]];portConstraint=eastwest;" parent="43" vertex="1">
                    <mxGeometry y="130" width="140" height="26" as="geometry"/>
                </mxCell>
                <mxCell id="49" value="state: String" style="text;strokeColor=none;fillColor=none;align=left;verticalAlign=top;spacingLeft=4;spacingRight=4;overflow=hidden;rotatable=0;points=[[0,0.5],[1,0.5]];portConstraint=eastwest;" parent="43" vertex="1">
                    <mxGeometry y="156" width="140" height="26" as="geometry"/>
                </mxCell>
                <mxCell id="51" value="zip_code: String" style="text;strokeColor=none;fillColor=none;align=left;verticalAlign=top;spacingLeft=4;spacingRight=4;overflow=hidden;rotatable=0;points=[[0,0.5],[1,0.5]];portConstraint=eastwest;" parent="43" vertex="1">
                    <mxGeometry y="182" width="140" height="26" as="geometry"/>
                </mxCell>
                <mxCell id="50" value="" style="endArrow=open;html=1;endSize=12;startArrow=diamondThin;startSize=14;startFill=1;align=left;verticalAlign=bottom;exitX=0.5;exitY=0;exitDx=0;exitDy=0;" parent="1" target="59" edge="1">
                    <mxGeometry x="-1" y="-10" relative="1" as="geometry">
                        <mxPoint x="109.57999999999987" y="360" as="sourcePoint"/>
                        <mxPoint x="110" y="200" as="targetPoint"/>
                        <mxPoint as="offset"/>
                    </mxGeometry>
                </mxCell>
                <mxCell id="53" value="" style="endArrow=open;html=1;endSize=12;startArrow=diamondThin;startSize=14;startFill=1;align=left;verticalAlign=bottom;entryX=0;entryY=0.5;entryDx=0;entryDy=0;exitX=1;exitY=0.5;exitDx=0;exitDy=0;" parent="1" source="47" target="30" edge="1">
                    <mxGeometry x="-1" y="-10" relative="1" as="geometry">
                        <mxPoint x="170" y="480" as="sourcePoint"/>
                        <mxPoint x="253.8399999999999" y="344.0019999999999" as="targetPoint"/>
                        <mxPoint as="offset"/>
                    </mxGeometry>
                </mxCell>
                <mxCell id="56" value="" style="shape=stencil(pZ3ZriQ3kkS/pl4T3Jfnnun/EKBSV6E1KqGknuXvhxwhl2sWeShh3rS452VEkL6Ymzs/5b/99uWHXz9/SuG3379/++fn//r64+9fPuV/+5TS11++fP7+9ff1T5/yv3/Kf/vp2/fP//j+7V+//PjHv//6w5bc//Qf3/5z/8J//6FX4m2OrZXC//zxX+KthP/7D3//Q/7nr7+8yodbniKfynv5PG8pinzsIN9vo6t8Avl2K0XkA/1+uc2s8rT+fCtV5Wk9632mvyIfbsXWE9/Lp3n/uT8pv95n+AvrSe3W9f2HCvL1Nuz9DJQP+rwxg3y52D8T5Nf3aro/G8gnf95M8vHW9Hkbvf/g+3PC+4/zNj5+33SL8PtLPg6RzyQ/brWKfIXvG7t+33Rf4Dv58NE+ZDy/sd0/z1O+0HrqrUSR77AfYrnVj+spuN/i4+ee8rierPu53DfUtfz6PB+/V0V7FeOtV5Gn/Rkfx+Mp38C+xXBruh7cn+Fu7u/yDc/j1NfZbhW257zlKuID3v64jY+L73dr8UZcfFfHs9tv8+OjDjS1/VamiBd48/3ud57iExxv03087wfhjbiYzXmb8CKXFRerHG4VFl/1Wfe+A7Nfb7Gp/IDfL/ph17mpcGzLrcnvZ9yWxbx6vg04VssLyfspuJ58m/J+Kq4n6ymPFTd+vn+dh/yKg+D9Zz1Xy05H2G0Po/0i30E+WRSwzhqFGbcWVJ7MTrKoc6IdWU5TvFZgM3ubTeUbPG9Us7bDEpRvUeUruS2NYk5hwC13lUezr1Z8fXGynFH3w5IfKC9ecZ84eP/B3n/FNCHcxlT5Cc8bLKpacS6c33Drsp6O9jDcf+0hP9BNB9s/K0+C/WPPu/IGCuPX+w8qT/Yk3nfXQz7ieY9qD/OyzxSWqP3ZeRWFYffd8pAv9x3+Rl68Y65of6JGPSuPTLgesc8rT434PsUe5nGPi9/YK/1e836C3tm3rvIH+/nxvK88fuDv14/7v6w3hr+vUXO6FZDPmsWWjO9/+a+P76cUTDOzRf0r7wd7lfV8lYr2weKBsuIzWE9R+186BofV3g/7U8uKyjzEY+OjfA2435plFQHTwPU2Pu7PymlyU1SmPnbsm+A5ye9ntIdds94l3+D9dEUFarnvwDeZRYgqT+dxaHheK8Yz4w7KPeQbxjPD3n/DeGNYFsjx4bh1k6f9P+7R9UN+IKw07tnKi3zBNFPsZ+VsamryVSfCRPP+tl/kaT9PRUGW/MTfF//bAsI4U+OxJU/x3tXv83rkedvy+Ph9BUVe8g3syVCUtz084Lv9llSe4itDuZZ8Z2RA1p8RFh73aO1FPuP7CU3lO9orsYet3H/hjbzEG0ue1tP1/C558ndLXlCfivah31pXecqXu/rrJT9x/VXef0P70DV/bB3t5/IvJs/+QvfDuEe8b+T1/E7c//1uLV/kG6y/6Xnsy56gf59R5en9N91vnfPZpvutJ4xPmvqjnhBWtXijZ4yXmubXS37g70v83AuWyZrGh/1Rd3oXX33cP70inlPt+zaM36r63yVP+VrVeL53tD9V7fOSr/A+q+J1fWA8XzV+XvK036rakz7xvFfFo5Z8hf3j62H/Xu/e8AH2BsxnH6D9izyVOapWpcby17z+pvIUP7h8Or3PqvKMJ+vzcjxf1b8sebL/9e79X+TJvlWN/0c55GujqDzZk2qlhYr5RdN4clSMH5rmR6OhvzZ7uOSp7NXs+zbEA5u9H8ZPusafo5/8e1Z5wjf6Hc14yA/EG7tW9Zc82YcVH1aVHxgf6vuc91/4c/H/kuf4X+zPPODhQQGmpUAPvBS6KdAJi1FT2hnxiMWkmMhSGIShJ3voxKBgtqJZwqg4ZnV7MzNMX+5W+UWhEG5abm2qAta7q1qKWRB53IWmoArkumPT2spSoLMWm4JNs97D62uFrtZoKSAabenYZHgkGotmKVA59Vk+elGggHQj/FEVKEJIfh46mqSNASdVoJxvKUhSORm02aioLamTQlGYfClMegbffONeKb5WsERlKRBQuCxrtL9QqZI5FUpdCpRqPSsrLwp0HvIDunhRoLeUi6JbczL6beHOUsDyc1eW0lJItKRphmxiwlui2SUmMJRsJ26iqdwIf1MFwlRLU6e+FegvDK0KTkYBa1AYarKb3qh3NgWKI4sCS0uBTGWtiuRsBXCK1aD2k8LQ3HE/A2EDQZPlw1tqUbOF/eEITcgK9+69REsqysrc25sUrKByOECtKyNmH1FCCIY5RbYabdqXHhijPyGfV8tHRZjlgewvUNbQs4bFS4HYw71o3XgpYJ2nKtB3cFm92V/gSn/vd2D+RYGimT7MVHZ+hodxf401aEnTPlxDUzncZTWE44bxV1ZERvWVle4LQWwpEM905+9BFSgSWAm2UFhWGNpJoWqNbilQ6LBTbDlxmR/asujJLIdnEvyScGDZsJttTVx38M3HSdNSaKaAlRYrva3Ej8zMUhAsdQY0Aju1/bik/V/ooaeyB8dEEvJOhgVeYXhxKeSkCoSP7uxZACg2M0tBEYGOFdNpCfhgSsLOz7MqEEY0o4bSo3IR1FhmS4HS440AyGstCINPs0vLjpCp3LtfnoFP3DTUYSS03kshGbSKHy4p12mZZ6o9blBCwOqB5Ldpid9yYnREN4oh5Y6GMd80fs5yxBTzPQ3jQ6FggXYpVKvYUAK+FAQ5WeEKQXAzawjXD18622uNSOLbSIxUzbgKsBSkuWMFdWiXin6HNhAuWgpy4hpn7BsciqpAcetWkGdoaO6XgkT3K7imUHorSLG5IFlhK1i1H9FWQ+FaQrrshULEaOZCIWCKP4syTiunA1vBKDtEwX+ieg+Fdod33ioI6eVgBIqxfB48/msFC+E2jYuOaFXey8qw0SlWjZcqF7aXgmTsK+kn5stSkNaDwunxDpw/bu+NQ9CHq+ofSmcjUJUdXRp2Q0wrXxWmX284tqkCOsWmlq8UPkBW8dqMUl6SUmITG2PrNC0ROS1LQdCfEtjHNTVkeWKwvvPCqQoE9i8FiYzzYJ5Z0yOaD3Fr1yOaG6KhG+U2BQwSu3JRc0Uuxs7P5RkKn7iu0f0TgX2rIK81Yzl3Gt66+fO8JCE8Ze4j3QpNFYhhPY2ClQOioUtBOBNpcoB1pZD4GbRrZvCJ6xo6JC4Db4WpCmhmjDiXuFC+FLxTZdDWMCrxboWhvzDu8ddDoXCP5bhHRw+FzB9uqMva3UJkKod96XRPZ98paP9MQj7ThjI/HtFdP+OH1u8QEC7a6Kq1hKFt9c78yVvDSMjxEKxP9aKRWQsXCh1RuAsFrlpeKqAxdoXKYeiVArosf60FexUuPlzBWtY0yCtm9tNGj45c9vfNF5mPPIdGZJv9QA89bE5F4hzoQah/KESkOPmJixF7AKd1c8fIJ85Y5DEgX2NaG0I8JOBDMYF4wGaGVcAZOLHGi4l47nR49mQn60f5cVqPwPDjZFbFlwzGEIeSFjp7wwca8ZRH39aV89NPkZtQfphHPpt+38b7oSkEWk/ppHhO7oP1nLucknpNxDicz4qMF/b8Sav2h8g5KB6bOTQPikFnjAjH1LQwIw9+DMUlH1DotXxXOCzhnAUvESXM5TctVBq78XvtqpiOa8EaV9bsi3n5w8YbJZyJsWnLOn6IkIU+73j/U55S5l1c1XE/RF7rVnaP6Ii7EW8j93UUG/yAXrVb42lkXmwyh8R9LFEDax7/1IPaz4D7uU1FdwNPMRl6XrgvvXVlYx36Tm2cUMDyf6tageUIYrdhdZFHbktWe8t9es1IfQHDuCes/JTHPhzj2gTu05jKdgiYQOw2Td0PKN81/jnIG2frKB/t96lPoyowc5C/2A/4Pq0UFxCPrmZv+fvWoHgdzzEpU+Oro7ykPgFLwGXoIJCDfL84L7D/i9nng3zVxr6AwESx+hhDuMUGDwSMb0vUekPEwlKxQSk8frEEBbgYBSwX4+pwjpKNA+NxjcXit4j5y5IPup+pj64Yk4P9xV6/2jec+xA0PwpYsSpBEcnD/g/Kbz6cx6h9Goffj+5PiV9abLBKwHi1RI33As/5svgkYCFpjyHR/U/5116/ni+qVi/5rPEV7v+o+/N4vrrGtwd5Wz9RDPZ4Vj1flL/s82jjU3k/m30mfPBKHuesBY9nCKUtQcuvAalhxRjZB3/xV+Uv4j38XkXtIYPMxQraPLflyj9SPn7lf1H+wr9TPngVPxzkLT7BvtCL+AflL+Ir7KO+iN/I/lzFh1T3voo/se/6Ir7FvlwbtHOQ727PsU/b8Ebez3UqXztwn2rwfARZ80ZBDFjf27weXT/Z/5a1GB3Qnq/80eU5P7V8Fuc4NO0tYoC7WV058FjR4fEM9glP9+/UfdUND+T8q0etGbB97vkifyHyfvF8nFiH3fhDAYsk/eJ74dwTw0N47uQek6D+nfKLPpXzznjXsEGDEfHzkRSP5bkDuy1A5alEOorjjYjH2mCMhPZkGL2Fx23vtnKVp/0/bFBTwnhmBl8PFuVsEOahrmitVjwndCbj2nCBLWm+k7m+Y4N1eQ7ptHHzhclFNliFx39vUpjWO5DBaPWmAyO+6+CEA+V+qH9spxKqDtbCfHM3qQnRG/OLOdV/dZwLOS0e6EyZm2rfBtdDp7VVYH1k9zqqPOXLS16+F891mlPxf26jXfJTfx/rZdYaFg+DY0Mwi36okU8reRyq8BbTn+r800CvA5NgahZw4irYaz2xIeYFfQL5FtPoEwfLa01MJ87INHLDgZVie/XMexHncWbW6OUjR+6OEFrP7CBVOPKPXOHAcFKFI4dKFY4sLb2CZDApwoxS5Nb4ObXKckizprXcHeJet8Mpngy9cgoTM8KnknJPoZHfjHIg5U6LpTIODd7sIHkGvhXgguZ4oHcY3ec5ufedgvIR2ol0JQWOEwN2GCPhwLEdCtGdWLyucOAJXykcCK1K8D5wnYeWjTLXXbZCVgUqXMxhE70TR2KWWWzOOW8Ngao3q51jT4kdcsHZEltBllSZPWbR7eb+05e2OaS5sX+w+nI+WG8jqWeevL1587KX5imklxLSnt3OCklykkOA1XUv7TIIP7SytritfHYNEsuhg87m9mzkm7ttdKI8X5TkzTO7J4mXJC5rdz0dGoA+fulyaKNtNrV+MOfcu554mov3VdXDHOhqLXeRzYzdDFQPnSo2YGb36HFDnM4eP3YBilM89RlW7YXZnYz8FwQVrR1pSt7Ud+rGrNZ3e+j3dIVDR6krJPaidofAqSu2qiE79d0amXHD2wcFWVI7LUncbjvgE8b/ah0BWAeU2iFYL5r47dHNrKCzkgMbY7v8qjPIO4tavn7otjEWzOYhcmevxEu7W5+fQVzWngdAu7Xod+j1NEBAmgU6T9XZAwRE4RDoZq3d9YMRsHmTg6t9m40tCnzb5rR7WcYhy0rK59zzMXi2hFiNcZjLYAjxOLSrpYuxI9gQF9XHjcrdZ/FidApajahB4lJA9CeqfxidIa9ofRU8q3FGm5g7OAwN6tgHT/uawWatTA7hgo7WGpPjVh+yGfjWFR9xFnjM7rTRizx0dlgj1ozoH8bQ0GEeKj5dYbuZ0QjsoVFDFfDulaac3MmXJ42qMMVkXGPYIIft9eh6mqLJ66w4X2/4aN6K0OMyWxJ7T76odESbWMbIybDzMHk+xq6t2uQ4crvdJyl2zEWfDupFgYL1bnO552Futg0637ACFbh9JCxPHOjZpjYzXLRCER+MiN/BOCGT5yc1n6/HYxaad/XxOO8VdKpdmny/hNUpNwJLf6FoDjR5iNpmttjsUmylMCrnhv9pScZVnHyJXR22vSeamWrIyUt561rDJuceNSwQfdbcrhXcMh3u5jUO6OE9bZTBhpFSuP4EPl4ViDZabAzzZJ67Xfj3LGJcK9gNoofBtht1sxmvFM/kbnMIJ/ZuZLtU5DBFNmdz7Xyqs13ruKsepOA+iGMyvwjs2S5/rdBtCObAvbSv4rGB2/SlU7XzMHgsuU1Fe3YtXytke60DE+SUbJ48X/29WVKyvbmvOflkaPbUcV64doqYloLa746tndHuTNugLf0Fm1TyBG2vFYxcvBFSWlKzWbsVi7Wx2nUJfO/YrkdXVSBIKhY7DwXdYjTsZAfTYL2jx8bccx2zXb2R0S0uBbV8mW+LThc5Ci7J7uveRC+6wSEqtWAmtK0x2hFNmDbFoGPUJl9J6swcbs2dFlUGdFjGpN1jcPFKTJ1ROw9X3CiSM7Ei33WM0ODRElag2fgBUavVLwxOBJqBY/1wxZaiPh1xVktylzyVdG0M377yCK+c0kkaDU1RtWG5DQF+u+hlVATeLEffswUoxtMzPwoHkTZZl6mTlhiOjO7GJmQueQJWijH9+EoxGzt6uLKs2JVufCWa/z5Tn339fKWbVQEOV8bZ1NTDlXT2/g9X3hW7EpCv1CuK5fXJrWhWJhkYvhe7spJHdhdl+HVmDlQtie8rE9GeKJP2aB+SylNMWu3KyornsdqVmHxlul+xWA5XGkpSumdf4Hok4O1M37KZpPvKUPRHWkBKmDpZJ92+8hSvMJX4e9+vgb8vAU0PhytMpY6y64r4vD4amuytzUdtTJVuVtzthytqtXrMA+6blacZn206yadx7mCTeRpfyd4UL26VQUEbnM1sqmZXIpfDFb46QZr9adOIu3ES0JS1vekBhC1rJ2/jSqLBMY0Z1TZ5afMbcD3iH1s8rEeyqsaToK2O0w6jf9S/NG59Nzbe4cr3rrT8w5Xyls0frqwfiuhVvgxr6FjG+ugNeScvpJ3Bt69cyNP59ec9VDK0Elg5v+jK+6gduY1dz2PlmrIxGyvPTe5qryrfyGNXoNeC+8GuKK98vU4zYlk+XGkr8FTN+L2aTXJPCJhVjQ9rRH9atapaudXT8rXKjC+Lt8vkUREXZEOKx2zyWOErdrPa29KQ12ega+H8NGkNohQsixhTpRQ8X1Z22ZRVumrSJiUmjJ+j7uc9qwTlhcVYeBRatJHhE/1FtMmHE+OrqJ3OmUd5RrX/mRsHbDJD5ntAgu6HXDH+CUYNLwguB33/OSMVJNgEdr5KIthMeB5lGOx78agUm5SSeXSFTWLZiCV8X+sD3K2SsH+C5lM7QuP1yEBuvmMoaD61Mz78fcEPE18oF2wqOuNXQUv2iW9mDtopnDISUgyvThwPB8VztgXD/ekT1AnvsvOe+F4rm2x2GOUQNV87jGLxSVAT80GbFBH5SvakePi+ZRr9l+SzsWP8kNT+xI7xjE/+5JsHjCsauXXM7uaMTLPMNqm1HOIHncyQkcGVLxpmaT02qSMmvDuuqH2OPFrCLo2KPOrO8MAYcH8aXjcP4aQcd2YKNKOHYjBmlMGBubV19/DVUl2LrjwUwDIjvj/VevUajxjxid70qFOPyaHLyLph0ChE40RVrpAHyzIRhIrRmp6Qp7Db4FUey7I2X6cw6SArip9x50S7TY6LQNGqcDzPOzadz5T4/dg8rUPZ2m+owSAsDrUKDFrFqVEYB51xapUmYpEmXcz7QSZNVDPF8wWTtRMwKLa9ls6XoiQqGVuPi2ReBeL5l8/LfV7k6X02tQ88X/Z5XcKflLf9wOtZOUQxeUryL+bnobzNczrIF5//R+8/G8uA50dmu1+C5/Vmu7yY91sJF/PRCcRJan+4wWfJS9bC88Ced9y9yMN+2JiH2hMMwpLP7yf7v+QFVToUuZN+34ggztV6KEy6el4CHfb7tHlpvB77XuTfS1KuY0SqY0l6d/xBPtp8oP+n/PqHX3/4/csf//LT159//u3379/++fn1///07fvnf3z/9q9ffnz8p9++/PDr5/Vv/ws=);lineShape=1;" parent="1" vertex="1">
                    <mxGeometry x="3.010285452934795" y="8.366058990023248" width="228.62832015924332" height="598.1409751891532" as="geometry"/>
                </mxCell>
                <mxCell id="57" value="" style="shape=stencil(pZ3J0hy3EYSfhtcJ7MvZy3soQpTJsCwqKMrL2xswo2fJ7PnaDt+0IP8B0EChKmv7kP/w26cffv34IYXfvn398teP//j847dPH/IfP6T0+ZdPH79+/rb+6UP+04f8h5++fP34l69ffv/lx+///usPe+T+p799+fv+C//8juvlNtNGpfCv7/8l9Vtq//kvf/4O+PnzL8+AfBtBAaECIN3meAW022BAaAqoAwDxFooCUn8PaPM2BVBvgwDj1g1QMgD6rcoa1kYToN1KUkCJAKi3LFNaXwZ2qZVbzgrI8B1atiml2ygASLdqgJwAEG9NphRvgwDh1pMC6EvXaad1/QnY1jqOg/AEiLDo2vV4x3mrEwExKIAuUF2H+XXRcRwbfQ6ox3e9A9YkaUrrqA0FFJpSvjWZUrtNAqRbnwqo9B2WEAgKCCCXarxFWUO9NZpSOM7mEyDBlMo8rvwdUG4dDl9Zn6krIMMaSj/+3h2Qj9P1DhAM0GhKS8wUBZAQKPWQ1U+AQL9QbVuX1KBtLYdQeQLQBVqAEhSQaUrZrmi6pYAAEWQx4gUq2b5DvHX6cEkl3wI0mlI6zuYTgF6gEu0sLVHJAJUa610FMVOCqg4xHNL2HaBGBdDDvgDRfoG+dJ76Ti9AhOO9APKKLtUADmseuuaJQmaNL1PG06u+xocs43H+/djAY/xAJWCNlx0dhyQ/H99urch4etHX+Pg6//Xy0Aerx6l/jG+0P/UWhoxPtD/lVl/ns3RPkMBrvDw7DZ/avHSkJuMjCIqcDi3wGF9RF17ji46vNP/ofz/ReYjHcXyMD7T/64a/nuf1BNL8130dMr7AfNZxHzo+wf7v6/R6njMK6nV8ZX/yrcN+rvH290ltWcdR9iejfrrG5ybjA2ib+/i+fi9+XLchJBo23q/1+VUjR3m1j4uOx+9VVP9IvN58XNe7QD82+N34pOM7zSep/Im3SvOJx/PwGJ/pPEfT3W+J/r4/kYe1cDp+mQ799b6sRxnO8zY1mown+bMsjdxlPN33aBpsuDX4Xmt80vnj+Kbm2ZoP7U9T+RzwPGwjQ+fT4XttG8P+PpyHh4nxtP80n6IG7/q+tN5iVhDK820uiMKE+sYarxrZwSqcj7+r8k/3i87nEgc6ftDfj4f69ZAneF/ioS48yTcaH4wOQPpgjRdLmuX5Gi+GQ0YFdx7W3dPzBdNZ2u2rdCtoQw9/3AsczqFrLYeR/2a4XK16i7DUriefNZ+ugqqiIOwqB9stw9ybTqYxE6aTWWIO/7optSR06qGyPHRyenPrQeU8hpMIrKrBT/zr5ZBfj+H0QJQTEzATO2Bmb2AF3mzSpeGSAWJ2OAuQrPraGo8K8C3K/DMKnGR0SzkOx5vxSsQVVmiNO6nHC/lmfDTeLuJ8nLYjgzqqPrs0AjKoo71XA5nKqId/aUD4YB0X9Yn+pfMZlczdDxx836D2x35QYD+D6nfrRkT4XsHew4oK/9I3ZXw/Tuyb8aJPbQIBZFU4xOr9wQrIQgV1UiwLlTglI3GXRU4Ehf/9ggpGUFIsNxTlvt6OCnZQeyhPPM/hOF33NzciHRuUH9rMI/59OT+lIKFx96bcx9eL8yB+gE1h43ix/8pAncTuV1kqE94voYZrQE+guRq3owLmE1X+14zuJPNiVCZA7u6v+/iK5zOamtSQ/4/KX9aOhIB59Oo4Tvh/J//rZILoMGfuilhgQkb5j8Y8e9L1NpbPSXWxlg/f8ht9ILzer1YPi+qdvvF63lrD98j0me2JBvmWD3PyPn6g7llUH3j40t+MF/n2cNa/Gd9e//6OBiCvhd73nvE+Vr1fnQnDqu/dDpjA8eKA6BUdo03lSefgiKbvUe+of7ZD+t3Hj+OEvLOLXu9Xn0iAd+V3R0D91vihEfF9GYej7mk8xVEMfb9Gwvdoqv42MuqHU+M6xt1j8NbAzwqgCUV74UdFjSnaE7YAyEHdLaI74OINiIcP5wkw6VEyKTo6WmHRxOIYl7yVAYi4XWaRKPZjomG1ALMqgDTpeFe075YwR44sy0i4zxnY9mkq7GbEx2PbUkEBlb7DUHpsXqg3RhktAL738/hMTwBiQJeGJgzAzGyBGmU3L3w2UTmJBUCnSjo40jvgwki/cwRPAJIyTjMsQIWjsd9x+wV6F1JRw28BiDBLVZnfWfF476fQALjoprbcAuCHa8eMnwDkPdjOZQOQtr8pTrlADe/Dw13/BKD37RFv8ATAEAezuBaAJN8yoMUFvgC0SzmpT3gy27lMbpUaHA2WixKek63AbFGqC0CHL1e7cR1f0WXWi6NiMme77HrxzC9ApimNw/P3DKBfmKqLLQDJ1h390g3A8TV6NNhaKGZubgCFXt2fj2cARVKlkzVgYFRWhmMDaA3FZGvnmLmqOugCdPoFU+oXAEPgmkY9LAC5+XagoB0NDBQc9qUHh/F5YNRAQVaDSb6BF6hGOxoDTYcFGPYLFzGkYvwsAJ2lanF/G8CBs3qWBuretar9PAe+QAswbQ1kANWmFvQG0JQsBGVO1L094vkKMEy2XgD8FZ1oZdWp5sDFotvZaaVAtRbOtpV8elGZp70GUB1a1FD1OdFb25JyzQtA3P0CiB23AfQL+eTDUYh0KyeLxkyMO/v+BMCUgXqyaNIqF0BVh4tfaKb+TKTcFmDah8twWls/+QUSlQught8FYCjtdg1QVfoCMJWmuAD0oB73i6OxAM0XDepPjyZb+bQuQLddIq2yJ42nuLiiO/dJACw1erZtHeg/7UUDZvaDAsd7AfxRJMa3V6MpBtIUC6DazEAlsTcLkh6ot/Z+smhkHfuJ9KY73Ycpuqz+LMAwTYBMmj6VhdsqHExpWKjQZOp3WLLU7BhCM+KJZkzRjSOdKLrEzYx0YryS+2Bks7Ia0qfDAuAmO0xGOSER8DvUQ/l/AhC5OSwGcRY0j0fXoNELumh0e9gzcpVjmJWV0M0+pqYyTc6ImeYInxGVk/2/ZZcCivs9gdddWpOk0zrTGWcM32Ga823wjZuWaLSJcgrnMxZuAXDRlv+wjiPFm2wKzfwPZKHMqvdhezho0U05snVpiWrZbJJ8uMQ+l65a5eCo09mVih8XZ6krfdrZO7BtW/ELcpzHfgIF0PBRfDzjd0DlNUxzJWb00sypYmapK5SOtdVaWUNERXcB1Hsa0AZaALkPjYMVF0Di35auTL6sDRCHPYv7OVVf2onUJPn8FzhE8GQNEc2yacJ4278X38GiOFAuTXXrVmal91l6/XC18H2YFg2cUed76MF3QMJCBVutFQC7mvcVfRVkm9PiXxBGt8xDMX0rZiyaKV4IstcvXZjGfnDQd0C7EpVCMpeKAWhb/7IIMWLhZlPP66Zs6SxV/dIXMWv+xhXOGtieq6YAFPcW5VwChqHth/31LOWJFPACxK4AMl63j1IiB5mrnGZaLgAF4M97pNod0DmWwrj7R7rpO4BEo+18UxJklt64AERjL4C8QLmih2MBJIB5p5ySEAjq0M6F1xA0JDAX/NI77kBiSrnSx5hqvGa+ccOM15xRti6AGK87sZVMmqEWe04Ylzks/WO7JeEsDc+kTJjKtADif8gR9aVhzPoCUPLZAoiYyRFf0WHZlwtAD8qoKr1z4BycorrGAlAC+CiqJC4AWrtWH2hHfNOUsgmBgJbishbkfdhOdFpDsqTTiQ68YQFPaaKlOKIKgZ16RbsUVbbuyAHapaCBpondCSPotu70LqLtpi16oF+0T40uSgNt0W5yaVcTIPp0HPfrCUD60gLIjUsdvWWbGBwKIGV9AXQN96CSd+SmeC1T52pWnoLdOQSzWtmlfuj77wBa2ImDursVFEqdufuqRPlFWkmvlnfT+MNZmZmdo8estN6HhpEI3UJ/FwBZ6Wo1v9rVtjYH0AWqqmBtwAUV76XUGKDl4Bq+cd3ootTQoX0CuKgf51PqmBJxsuiOwvhkWzlc9eTDXV9RB/DRKHbjKPbn5Hh3dHOeXKDO+binV5QvkAqBhjbQiZhhsr9X9Q4krip2IiobVlE6EcaXV/R/BDSrRdhYelumc2KjaTOTNiUUlXff2POX5ndaf6Gzt2yqB/zqxk2N50sc5TXMykocgzUs7j5x0bwR1Leb2J4eFjx3of4sgIqZgcbr9scNBVB9gAVQucT1o5ayrvVeJro5twNvKgCt3WwZsheqdLFCmJyyMsqJKk2K7jC6aJcpokWbmFkmDcUvLYBcoG0DsU9R81IDSo3R1Gh6lHJ6Zx5L3P2yRUn3Hl1Z6cy1cbbXMimAVOkx9AXaFjt9h2HlMhL6UMbUPJSc2GVuHo4FwG21Alf5wlsWVBjnjHrrDBrVkjlFaVqNogWgmgALoEQIO7RnMnKzMtlv5RE3z8dsqEQX7YBuWoMVt80dCz8sgGQuX7GhxejTgVUnZ7GzNLC+6Cw2pYm6xvYeCxUfUHpPsxQXgJiTWbVeQeF6CDs9QjwcCcPoZ9Mnq2QscTebipnCKdXTalKVyn6grqRa4Vq17m4uF3EClpdVOEB8Wrx3GSiXtrdMjsbECNpHNOsBqJzZ6+7mmjDabjshxWt5URzJkjMrF+hdAOGXKgcLzWnp6swvbYCsYbLzy0qTt3i1SxJzst3NmGAarMZlYbHhP1Hx3T1ZRL/6BcnZaxxHP63u3Y4suPDKS0mmeOXGlxvUEzIh0zImOlfb2sGmrxdi27N0+sxNs4xHKvYzh4ZTLEsNp2Qe7c7B0juxxfK/0RvcLTU4oiE3rcT1zuimG9RUdxgXClPTuOFlIRApMC25bHAps2khtOMi6KSoDredT/Thipoo4+LGWarLUpYpdHMHCGYFYASglfLbui+dpWgpRwF9hNv1KiGDXF1wTAvdTMifDisXOzPWG96b+LqtOzWYDDnPvinMUzTLd6vIDLptuQMs2NwVI2gySbZ9hE0BFH8xsmVcd9SwRlJxP5kvGknrOsyOgWRLCommO/llH1aZaw4MdhhWzHxyLe1deSMqAJlBC5GaF8U+jOi7SF/r5pXfYVnMPWo1QU7M6s1S8CZeoG7RQvtdvfBNefYNsZvFgtYnxhgugC56MnmfLTtzItHXrYz41m8YkA1A96Fb+4DJAUwLoHUaJlKJO7/Hsm/Ijd89AWIiLe05Sk+67znC0qD+C4Q21LhCnCVzYSbhWboYAs4S0jAb8izlDbMhzy4dljmqGlC6AZS253VFuTNDs0qh+/xdJDf6CacppZMcOUqaaBbeti8dTSnam8K3tBl1N7ncXQuW/TWRxTpJlOUyOCepuBf9kM6SfclEPk0nJrWvenoMh/PUruz6nFhjo1qZrck+iGpe8Ees/DtAtDVgtry5RS7SWKunHnLl351eb2sgD0GNJ8m+RBnVcMi5Z+2BfiGcqBtkc5RpNWc44aCME6UM61OcpR6ShVzaSSYhdvppJ4UUiEItVgTvkc5yDih2H5jKLi5bByr4J2U/ONLrpLAIq9+7dIltKxH+3q1oMnmSp/oVJxcxy1OJuHnRLWdYen1HlWkXqUkKwP5Abl12vEDZqzx1fOO2q8gWTXxOLpY4zgF0D4fas7FIgGTKCQcMZauKelVdKCj7uGmtiz44AmhoaKWp8Q4LQJ6aR+zBE4Ce3WRJdbNhRHYyl/Pk5MbdrMamRLZfqqZrVG4PU+0sVSR1k3VGnJxv+WjC+QRIFx1rpgIuismprsGpVrtmblcA1sCNlnRdkKnwKuWb9WKAntbMfV+s9+LkOt9x2JQSqg5xmOqQ8J2O3Y5GwtMarXfTdqTTLzTTjNkXFKvVFAhIC8RiUwrcP8Wc2oOV9Wha5Y6x4I4x4jEbHFW+mz9Ksm/nHkhmZV1w5dECtwbzm9GqnI+GClYMVp20MvVtKdSV86Ask/2qtYu6dTI6Fa1N2uC+N5YIORJmEnfLYo9MkFmbQ27726xsM7NdlvPeBypiTUXwdsTBeGvx0jl+3stUc5sOsyb7Re9bvZSdc9aKcns9X3SR0f3kQK2ikrFzc9Ns8w9oXmTVdRobnlnp1cYlArPm6jcOXLYCsq3yi6wPQSu4Xmvz8iC7zgWWcpgtYqRFVAq9BVT6rSRvZX47qhlfB/cZszYLHI8fVW+sDRn9oPKtVrQorGbxbvvAbWEsNOaiTYfsT0Jb1uyVGlC+Bb0vhYlLaztTBvrzgp7n0jHcI6g8KfyeBkubLyh/gloqhYNDgp63wtVwzFeYuS2Gt5HrmIVjVemX4U/vb7A804IR0BZitNvy4Hr177M88fWGi/Mvyn0aSEoH5dUvkpQsSDdxmnmwxBWOFQrKp6WE8SBBAx1SRJdlUH0vXdSu1/MTufJF1BK6kQlEa1MTubhy1EiQyMl9UfWrWFmjtw7yF0a6rbeg/LcM5UeDg3f6gPx9zr8319UaT+9L1jiwyKaqObB3VwpsizdsPMkfMzv5ebFIau6iXswgZI+V9QxBm9liqJm+9A4y+NebN7KkfH4zXNhOMLuoolprdRkrpwlrkmPh1FE9NIVjgKw6D0diqTeLGal50rgV+8xoMjEHz3nbWewMEiy1jMWluYETt1uJmlgWuQ2u6e8R6YbdYUbkE7qLvMHMRdc2S1u74MXMfxXQBRct4icw31NUv754bq1sOOdtRCPGA3/fk7bX2NWoqT7Odd3O2naTOrVf+6Dj6Tnvag9d7Kf19QhIZzy0m8d47ApqeQJcLipZEaHA7V7MmcmRslt/0fOATXesVCa3lU9Z7W/OFdztalQ+JHKSWDmtiOa3P9ERX8VUTZ/CMjqp6fmMvD8WkcW1iR7Z0E/ynNTHofZWQg0mDatXw+fB8yLZMWddntj8y27/IX2TLVk7o/q+yygJP8Fdnq1nDqvvOen+cJO3bHnXhenF7L3Tke60wv0VvTTZ9Gv2o2Zr09iQ3s3V2nDi+czGf3PDuWz3sWOY/ho/dDyeN6v607kjUrf8DT5vw1JQsDJA9jaH6NHN3uaQ5z8tCpvn712skG4owWrKcxuhYKFmGHlZjK+NrKAsgDhzt0pNK4gq0SPXRdtprUkB9GYX4/wjK7klW692rmq5ANpMnev5Fms2ENkNt0uDJgVQ6ZEFkMzBmFATLWZdRy4LW+rJL5CuVZpxGwkvT+mai7XMCaQfukb8LQCeJbv+C0AhIMXucyy4SzXYthYkuKv5yCO3B6yWoRMrR/FaYMC2Wribk5Cgkatl1aKvZuQ+dtXcrpErr9WmfsJ44Qe2KhyRa9ZXK7R5wczWYdQmR4RXk/UXxlMLGqyw6WnKLohn7DXsUrNyEbuvOAEs+/GCMGnFCHsWAs1LU3Hy+nYABwWQDta6Su/EadxtqFGaCidvmRdnqYW0S7sDjwEwyyhZlaaG0UHd6w81bjtkTHNqXGnK+oEkTr3t1Xap4cO+AVbxi9i0bk0fEud9dzN/U+OmQNbcNTVO3joDYIkwB3T+0r4GJsJPdomTSrvluW6r4eIXrKYYdqQqVlK1X6UantQ6/P8A6x9+/eHbp+//8tPnn3/+7dvXL3/9+Pz/f/ry9eNfvn75/Zcf7//pt08//Ppx/du/AQ==);lineShape=1;" parent="1" vertex="1">
                    <mxGeometry x="5.218952493680945" y="330.18141434488143" width="525.7355037238602" height="313.3805676756267" as="geometry"/>
                </mxCell>
            </root>
        </mxGraphModel>
    </diagram>
</mxfile>